<mxfile host="app.diagrams.net" modified="2023-08-29T08:32:25.931Z" agent="Mozilla/5.0 (Windows NT 10.0; Win64; x64) AppleWebKit/537.36 (KHTML, like Gecko) Chrome/116.0.0.0 Safari/537.36" etag="lw-phgavxrsZlpXUQDCS" version="21.6.9" type="github">
  <diagram name="Page-1" id="wuvhttuThGXfumBSySBy">
    <mxGraphModel dx="1167" dy="638" grid="1" gridSize="10" guides="1" tooltips="1" connect="1" arrows="1" fold="1" page="1" pageScale="1" pageWidth="850" pageHeight="1100" math="0" shadow="0">
      <root>
        <mxCell id="0" />
        <mxCell id="1" parent="0" />
        <mxCell id="yjZvJMgO0i2MyXW5NNSe-1" value="" style="rounded=1;whiteSpace=wrap;html=1;" vertex="1" parent="1">
          <mxGeometry x="90" y="130" width="760" height="480" as="geometry" />
        </mxCell>
        <mxCell id="yjZvJMgO0i2MyXW5NNSe-2" value="Applications of GAI in Agriculture 4.0" style="ellipse;whiteSpace=wrap;html=1;fontSize=18;fontStyle=1" vertex="1" parent="1">
          <mxGeometry x="337.5" y="285" width="215" height="135" as="geometry" />
        </mxCell>
        <mxCell id="yjZvJMgO0i2MyXW5NNSe-3" value="Designing Farm Layout" style="ellipse;whiteSpace=wrap;html=1;fontSize=16;fontStyle=1" vertex="1" parent="1">
          <mxGeometry x="120" y="180" width="170" height="90" as="geometry" />
        </mxCell>
        <mxCell id="yjZvJMgO0i2MyXW5NNSe-5" value="Precision Irrigation and Nutrient Management" style="ellipse;whiteSpace=wrap;html=1;fontSize=16;fontStyle=1" vertex="1" parent="1">
          <mxGeometry x="345" y="140" width="200" height="100" as="geometry" />
        </mxCell>
        <mxCell id="yjZvJMgO0i2MyXW5NNSe-6" value="Crop Growth Simulation" style="ellipse;whiteSpace=wrap;html=1;fontStyle=1;fontSize=16;" vertex="1" parent="1">
          <mxGeometry x="595" y="190" width="170" height="80" as="geometry" />
        </mxCell>
        <mxCell id="yjZvJMgO0i2MyXW5NNSe-7" value="&lt;font style=&quot;font-size: 16px;&quot;&gt;&lt;b&gt;Crop Breeding&lt;/b&gt;&lt;/font&gt;" style="ellipse;whiteSpace=wrap;html=1;spacingTop=-49;" vertex="1" parent="1">
          <mxGeometry x="102.5" y="292.5" width="180" height="120" as="geometry" />
        </mxCell>
        <mxCell id="yjZvJMgO0i2MyXW5NNSe-8" value="Agriculture Education" style="ellipse;whiteSpace=wrap;html=1;fontStyle=1;fontSize=16;spacingTop=-42;" vertex="1" parent="1">
          <mxGeometry x="620" y="290" width="180" height="125" as="geometry" />
        </mxCell>
        <mxCell id="yjZvJMgO0i2MyXW5NNSe-9" value="&lt;b&gt;&lt;font style=&quot;font-size: 16px;&quot;&gt;Content Creation for&amp;nbsp; Universities&lt;/font&gt;&lt;/b&gt;" style="ellipse;whiteSpace=wrap;html=1;" vertex="1" parent="1">
          <mxGeometry x="120" y="450" width="170" height="80" as="geometry" />
        </mxCell>
        <mxCell id="yjZvJMgO0i2MyXW5NNSe-10" value="Increasing awareness&amp;nbsp;about farmer relief programs" style="ellipse;whiteSpace=wrap;html=1;fontStyle=1;fontSize=16;" vertex="1" parent="1">
          <mxGeometry x="345" y="460" width="190" height="80" as="geometry" />
        </mxCell>
        <mxCell id="yjZvJMgO0i2MyXW5NNSe-12" value="" style="shape=image;verticalLabelPosition=bottom;labelBackgroundColor=default;verticalAlign=top;aspect=fixed;imageAspect=0;image=data:image/png,iVBORw0KGgoAAAANSUhEUgAAAOEAAADhCAMAAAAJbSJIAAAAe1BMVEX///8AAABMTExRUVFHR0eioqJ/f3/W1tYiIiJWVlbv7+/4+PhhYWGfn5/19fWTk5POzs5zc3MTExPd3d3a2tovLy/Ly8vn5+e7u7vp6eldXV01NTWNjY3ExMSqqqpoaGgaGhpwcHBAQECCgoIMDAwlJSUwMDCxsbGQkJD2z1hzAAAO3UlEQVR4nO1d6XrqIBBt6lbjvmtdY7Xe93/Ca5UDhJAwLBrTr+dfbYwMDLMzvL09Av1tb78+RBIO+/ghv1QOlp+RDr+GxOVaS18UNcseWRgM8+iLonrZYwuCQS59v4TCpIDAqFb26PzRORYRGHXLHp8/ajI9h9po0LgBnLspe3zeaErkbabi8x37cFne0MJgJwjs9eV/QLouyhpZIMScvmOalCH7eFbSwIKBi9FP5R9YwkYpwwqHSR6BXENW3WjrQsZ00p9vQeBXOeMKhgUImaY/n/Pd2dd/sTIAL47SH1+EeC1nXOEAZT+RP1zshXzt5H2zIugzQmTTczISCjJalTa0QIDO+2oNfzBf7iQD54pW2QP0xi4qxKXs8fmjyC2Mom3ZwwuAIgpPVbdHb/jKJzCpuhS9o5lHX3dq/nIlkENhd172wIJBQ+HH6FIlQ2369dkW2Dc3jWHKVWAUHu7qcDhsTSq2+5Y6Fnz/J0w0RuG5xDF6oZMnR44IvTAKP0odpge2eRRG0fhOY9Up1DIp0P5R6FWnsGANf7CsPoXzYgqjL9g0laUQIYpZ7f2G4+yQJnFUdQrfGCE8jNaJp71ulEV1KUTIM6XG46y5XV0K4Rwpjl5n9GsoRJCirf5jO/4lFL6BkKH6j9X5l1CILaeG7K+78fw7KORZiV3mX53fQeEbj+1mgy7zHArj6WUzSroKmq8aWJyCiFnWrd1oKIx3bcUq4HjVVDD34meZLFmfC1RQ2NIXRd1xetE0m9huHxP1f700hdOaljKOjEB+EUjbTc3m9k8ShZ2CyOJrs6kc9a0rxg1s1CuFkw8TgS+7humA2vki7ya4yGcpYZiPFw6h7lMDPW56l+H0BnDwTCVwVhcRus9v9uErR/lzQ9s61DetOKVaErbQLx1G7RWRlMI+w4uQxu9lDJyOVp4eT+Ndw4mI9gyeP2ordDaFpN2hLUuAlnz9XMbCuBu1NLTw32eP1wVx71xEoF7fYQmrUoM53XWPYz2B+pw2z/S/sq5QEU+ARSII1K8RdzD3Tx5kKIitedT+v8/Z+oUNmkIICrUObsx1TGXr9ziFmWjcDyZ8BQ8vbc8UgVOok6OSIfS6boUJoHCWTW7P64LAVzdnCgAK1aNN8UU+JDTSfrcaAIW9aYtj2WtKy1dhRXEDxa2q8gqSKKx4kbCRwll1pegdJgo3FSsgyqKYwlGVrO0cFFD43XvRGLcd9BSe6vtdVS1tFainmQh1OFmsfsXiMVS9YsiMPwqrjz8Kq48/CquPPwqrjz8Kq48/CqsPVkPz8mdmtsm7G2osbH+qOb6gm615fASsKi1C4xnH2YfmYTwST4g2UkoQHght1iosknIpfEL7GvVowR+FlaXwVHsu2h/PpnD9+F/S/u4TKXx2iiH5ozAYXoXCVWu7vFwau8tyuR0G7WtTMoXrt85k9y9b5n+qbRrTMGMqmcJD0RmN6HMz98+ClCxLjRh3l571RtCH9efi3Xx8QaDmdVajZJuGioG78KkIhVGUuB5/S8oeOR2fmaNXJJTsH95wmn0OlvPWJL4K9P5qMtxevvT7dOTCqyX7+NFsf9HrvbjV+8wegnCpFzceOnsg2o3inj391kBtFL52KELaNn/EN6brYfqhpraMHvdIPDdVQ2WuTd6xlI5fN6OV3lk2onGbrnZ07FaI82ePKlhOd69rWtZLzdPGnVOcFeeTHlNr12/LA/xyEInTVM8Rl5pOHNt+SDvH6UkaXc2x3m0uH9lZ21vkOEX3iN7Nci+fs4eNmeJ0e/Xvsf4GyA2n/AoyF/J2tJY3s/v3wl/WIJ+h9e74KR/2tBUZ7Ljv2HcMKqQ2ru8Bivrkw56WDA8mD+zsSyz6L8gL+5JQtVtFzLWbAZ8HScgESxZKRo6VWIZCDHqcdSoGE7Cnwj/xVhu+X4UfCX9njuRjCi5hf0Za6IS72NvfFjYYFGLI86zC2NbyPjM30cJIH7rR5lDF7rY5knO2/4oBwjHT6y6m3U7sTz2F+u0rVtHCRGGmY7jWAGKic9QgxDeTF3oKc+SCsG/oVfNMRH2HUhf84oTcra10I9BTmDccziD085uQUKGSBu8YQm41Aq5wYWyqpVB/wvgHXC8muY8ogHUVSCFyY63gwifkK+6LKDsgHAXFGvwZqi0I3RVGIeLehOhcwPV8p94kUaPHseNefQFHcWVLLTvDvgnjP+1Tg88DXL6DQgg3hQo5sIGniBoOh8uDHC3nDWyLS4I4K49T9peQwsVbhm9FovV2JEwbFdD1ppyWsAkE60jNNQ1xNX7bFLHwiCngEB4iXwSTsuJ9Ja67aXcT+yvJkzduMK74aV4Gm7pxAIWI5lBmjk/dAjIapq/6NCtzBIyzzSt1gP/sH1DEEo4JrypInBC0AE9KkGIakA7+ChEdXkiBu1wSSV4O9ixpJ7Zs3lwETNWB9njOdTW0SBPfyJR1gUL0rvnEXqJ69S3NPa3ki4SheEnpDMZcvh4iN7npX8k00abP8tTm11hA0fduVGwsunGkaQhHtx2RMKBsevasZ0Cxw0wxiiC9QytryNIA4oPi2IbJsEGAk6PnOS39yKFCxnoUWQOh5he43ViOUIqJr4cytVStBSOIsHeXlmPTg8kratWhFHAcD3ZvC1HjRm0mCclGUIn4MS+FCAVFjXCn29y9yUxL5XNMCmFG6MudDwyQyGPpQokP+Q1k593i6mH2pJf/BH+I9vQkSuHuTHDP1vIlhHEz28LHf+qcrDisq6NQhAqJKhUxLPOTyf1Bn9JkaCdatrwVpQGHEIyg3lGbAzZuwkZkczf2UBeQ/bRXqLUyB/Y5Z16a0MOPmvdtgAwbm05aRS4PyB3uGHPugbShReARzTAzNUJcHgqxbrMNMfftfsyA/3DaaTEm9nBBaJYB2TD3kpM+2/Q0/wRuloa7wL80WcP2rfk0K2bO3X+CfUHbP+xhnakP64MWgGFa1Wzsd1gEyT3DBhFB2smw0VlmRurc12pN4RWTfhbb1szTjG3czz3CtCWld/AwY9JIC9JGxJvMkQ8W13HPsA1sXgCLjfGWPrtG4ndsDrPfjAybs0Jkg87PiclgHjfUvJ5CkqiBADGLSIhv52ZyTATS1BjTLJDxFnl8FaDQ3CoVVpRzdRajkBbqOVIoJCWK6EoAotA5w8Y2Mk3GrykUkmwH3JdiphAZNmeFyKKXNHWjrKGWQNpQEP0iLLhvhq1r832W6cemTetDWJAkdoIiJ4SFWUCAJgs1SNLLUgwYbdp/QiSQAuedA5nCUdGPEsAkDc1kgG7SSm7FHCgGJA2BSxFAcFX5VrIUROy4a/EDpv8x16SAG11b8LSRa3tOpvFpcRBY16exBKwD4rykN9E1PjeGXQOKG6t9HOlw30vYhjRHEy4wgaXhIboqRMblB5rZpz38eKcQSTPaVGM+KK47fctqARlPM/u0lyrfKOSVqbSpQviFklVlhoVrhg1GPjEOoiv0ulGYsD+InirCjxSnjdn7B9qbM4hPVlz+L8rih0IeZSSmEZmhQerJhcwR7c1ZHKWFMGMVZXH9ah9HDqiH6McWnAeOdvWfGA/QTG8pbbHuDe74t5Qi4VQfhz1OsmF9M2zgAaLJwKOGsnXG48TU9ALkGylGCP/JVSHahlxFqQl3dYUOsc2R0gpU1N+zBHYW+WISUeZ15zHpqCJZKdvlu9jDzv4Ts7bI3kksrsg6XtdgKzKm1L3MLRqaR4P5cC7ZxyYif0HOP22k6yQ1t9fkwMqV9G92AlFF38hay8Ym3oeNS5T/TBi6Z9hseSx9BBP4oKsraM8P4qJ7Z9jAaBanGoaZ5gl1iwnGBFEP6oOpnW/S5n4t/Stxpo2STVuBruWIvTNsUOL0aoCGSt8VB3LIFpKULDnwBfcMG9iUOqeJhsCIrg2RdyIfUe2wOK37oW7IRqLn864jz2KO8Tg98OKdYePl5SRhlSIwfUEmyS7CEloEQBnTFJ3mMQDimLKIciCjfekvenILFIJO7SAXYJFq8c6wiTvnzTpNUoUjtuRzSbCax4DZtKkBWpKHlwt4fcZF7HO2PEvbSJBt3Cp8CW1Ev3eGTTqtY3rHRk/K4kB9AeaSas/c4J1hexOcbsh2c/9XNfH4FBkcAF47ZTVYcI5PCwTOfcXikLu/R9b0nFPKz8IU6wAcU7SsxJsRN1ERuJlSaJ0ics8hKmvghBUqRT5DljuKaahvu28pgCNbpKYWkQpxWC3OfJIF51HbclHfDNsN3OkriJ5nvSaJnoR9VJB74qrTNo/km2G7g0cE89V2tlWcRKHZk+bGgnUKgl5gVASh6nIVa7b1rEQhfJxcJ4xzgH04ItAZNj6C3ICL2qMuXcPHPsqTxiK8Y78S2OS+DWUSDCFPqSW1tgI5Wnb/pJYT1pzwpI7Lhcrsq67t+4AODwwSw3wWELeaOxVVHIqnngyRdwndQazDNemHk4PAPET/+2NEnNCXH9KIxQ52E4fMHj6ZnzRBnDwPeXn1SthCjtIQCjFADxDh4NaDNRGTztm42s5hzrDdIcL034GuYJVC5M4NLnwzbCmIcz9j7457P5AS4+6b26LCiACpsad/l62+FLjyENCogwvSA0TOEEZHzwZGchdNLw3EJirUVUXy6SafyEEsB+b8ehSyNznXYKqQT/e6NHO+YydX33h2kvXOsKlIeYKJ02tbKTvdz+/xLznJYpoKWDStt+Mw1Yj46D2wYaCZktBJV+mNrKyJbdqTDND4EAox6O19SsyCfGlF3FMag4RoRrYiF/fbIG6nRxqNzEKns1RTU/sg1p9/hk2PpRo+HCe7Re6I49YgcwvNOlR7Vcb3vl1OMugM1CFfB73vbVuKeF0MlxvNzQgBtw2zlw+9Rgj0JIN0kXMpysex1h1teoOv5LO+1tD2g2bAlviaqfZByvxbud0LOt4Ebfmvq3DxgLKfV5ucRcrHuRf4SoO5+Tc9KLy6CMvCm6xUJNvgF25NzL/qReGbRs3loX55yH1iZ/Mve1J4xWq5N/zOerQMZzmmkVNNF5bCK/qTy5dqCNxx+GxewnZPVzCsaVvChqbwhs5qfmkMktp7/Xhc17vNXuMy7Huy5n8cA7iB0iJOcAAAAABJRU5ErkJggg==;" vertex="1" parent="1">
          <mxGeometry x="160" y="339.38" width="65" height="65" as="geometry" />
        </mxCell>
        <mxCell id="yjZvJMgO0i2MyXW5NNSe-13" value="" style="shape=image;verticalLabelPosition=bottom;labelBackgroundColor=default;verticalAlign=top;aspect=fixed;imageAspect=0;image=data:image/png,iVBORw0KGgoAAAANSUhEUgAAAOEAAADhCAMAAAAJbSJIAAAAkFBMVEX///8AAAD+/v4jHyAhHR4WEBKAf4ASDA3i4OHn5+d7eXrU0tMRBwuVlZXx8PEgGxza2dp0dHQbFhf4+PgIAAA1MzS/v7/Ix8hVU1RkYmMqKCklIiM1NDRAPj8dGBpNS0ygn6A9Ozyura5qaGmPjY64t7jNzc1ubW5aWFmgnp+ysbKYlpdPTU4vLS53d3dkY2Mlr+tTAAAbPUlEQVR4nO1diZqiMBImAUTUJggoKoKoeLVt9/u/3aYqgIDctr2z+1nfTM+0kuPPUakrhSS96U1vetOb3vSmN73pTW9605ve9KY3velN/wLR9Mf/K9GYXt0MtvRfGcq/bPXl41hFtjEOo8GrKbT/Wxj1D58Q4mivpYlGrJH55+D4gI7PxAlkTp78alJUssc98ZfzaPwQlbfNNIdPI9EQqszIS8jiVTuzofR6rpYhd6XxZifEH318zg+XwQa6ocjz8Qtod3Ymsqzehn85hQcANGGDoRF/YB8XhPdi8ZI+UH0Alfv2KyovpyNRZIVM9dyHF94LEr2I6YW8RWf5Z5Noe0xmziG78eF/H4TDNl7UixDGz31J1Q9EpamDreU2Pvz/y5Kd8FUM79uRg+1Lan4kMx7OrMSG/x0TOZi9pk0qGTcmk+Frai/SVJO1aX6qKP61/UAmL5lDqDJyZOf6+1WXkL7igxlvNz5z9nGcMpezJZOXMLx4hWgfr6j8gVwiq8sUlH0i5FPKINRfsg95nTsiO3+DcDCRyS5FOOR4f6RXzyFA3KsyObym8gJxjknMdKJ0i7Ft/IvhsxftQ16n7ikvG74CbXLsxJgxRbUlVFH5TmG31xwWVIpwc/wFGWumOHcYVKxMPDlOmkwuLzoPh5ryVye+fmMKkxIc/PhXcdFygGMQBIavkdroVpXVr7+R2vSbwhHem+LHFMFjyr5ZsrZ/kW1jP+ESofk3CGHjaZmmQJDxDcl2ZyrXFl8jdBh7EKOuf6QBUxRckqb4iT9jsuaPNoQrwdpLuLl9WPP17/z8mQIMvDQ1KPBGd47iBSrHpzD/8vH7NCAweOqZ/pmOv8ieh3wOFSW1pzBNm/w6qVg1F5z+DCHINJ/3Xw3yckMU2Lq0U7Mliub+6U9zLh9e7tUAQvU1Fqg78SamDd2Kze/in+dM8SZKonehhsjWSR++lPigNiJEsSplgE+tZ32lKJPcHKqjJ6prQ2YLhOIctg2gZ8XXc4ByWvzb6xHSlggl+3PwhRtmO40Oz6A8qVkJ8V+YQxzt4QAs08jYmTohZD/Hie2zXEMC5oS/m8MWq5RKxoBoCM5SVQbMV7HIbNxzR0J7g38LIX9iIiNPn51PS/AXwSkakEE/KVnnkuji3+I0O8L4kUmWB8PmmGxD351kwhcsOfey3xpcu5DTjVyHMPaD02e9RnUIKZpwFJmRfc4Fp18Vvmydjd3jcLQXWXNMLUKaiq9PHVANCF0OMHDmxW90cKVMNt1bF0pv4pJpmEPg4YNv80mtsX6V6krAZzCneseLJgI/w7Rr4/zhUWuEvFHTc9RnzQ+1cyidNY5Dz7NNYaIGV4pMjt3HtwNCydWsWDN4Yi/WzqELKMaP9SOskyOzVVeAtANCyeWKo8Ji5ac3xFqEPucKg6qq0dux69ow/bFaIpSGAd8i6lbly2j+hDhch5B/x1bVZ8InVwy+ukpwxpYpWjteurLA0WjL/B++kF6ySq+O7AyqhTO66uGy4ie+tWmF8IcLGmCJB25nrfpvxDqEMwYmhyqi0sdEdqKO7XFtbXIvU4WQj+qBJBtw7DDZ+b7bdjoeUXUIuYC1sSvHDg3xoM52ItAtUndTFUIOwFAV4AG4/3YANh3qrkp4DUL4ai9VLg8KQ8B8o/zbCkIXCW1CKDwNbGvHYXfTiayek29odZdKqQYh+NwGteERN6Z43TZi+GDFKN+H+kqJvf3wqK6mkwhu1fn8lxDybcZ3euWKENEFWvugMejcjKv48xYI+ehai7QdsP5ro6QSrqxGHXS3KoSxfFUzQxStn+0RQpeufO15UguE4JSapwWBA7ObIdaoAdO7ex4hWOA5C9NLv0pozRTWZZUOuRyPfKYJoTHLuEsBCyAexroUF6bA0dJ2M1YjtBv4iOA029achqKMZG2zo1+FcOzIlp8BKH1oYseg4M+XejCrZvIFql6lRqP2z8fAautZhe5MSezlakTIBWJtkC3M9yVJIw1gKWiLtnai6jmc51up6MepVSvYmysca/mAiBqEk9yTXEIE4YKmXRNRcG3msXoOOWMHt3MNha1DOBKATmFA6ucw0/04WiTxHUO4oeDzzRArEMLSd3JOlBKKNNAQ2xCvbsCXllrc11UIj0Vp6eJk9Bg+dV8aF8f1Vtymeg6bEe4xxqcVGT981BXPtPOkVyA0ud60ynb/QwxmKpsaN4uPVysjVfUcwiqtDQWzV4rCWiI8oxtNKfMLlSG0t3BaiCWIP3+Kg4lbcfocQreJ09hg+mynH7rVfsLyEx8scuP7lPGmlFV+he+I3LTGBFUj5HskONcN0bi9OVcnmlpKVQj5Fplc7wghHK7ItU8tw2Kr96G9YkrtNosmDcs4Q+70u4RGU61ce0Lzgpf+Jk1Vj4SFh+ytKluzZoGjRvLmrLJOwcW98mQwoV21DOzNXUSnEOGnkDwWFFb5wX+uVX6AahCOU3H3kSiE3HMF+ckQn2r9kPO5YJtIZjDV34UnKIoBQkuubaNOx99aFRXAQWtvAziinqNqhIbH0sYxEH1YfIKimty8FesQuonRt6QHaPR2GpdIA9XYaZIJgpsKCthpyjqx0eTGI7nWXrpQ5SpmEwpm/WSQikBYPoRLiGUiUSjzliyWfG6nD0PTxsqSg1tZ6TvVItQdRQhHKOPe6xYA+S5/Dl+KEMfJnIfL9Ur21sudi/X6HKI8mTB+oqh8jRrz0SywVEvxFqFrSFIc0sjnd1+7lOr9FuJ+S7zbsBYh7OJFm1s3I1QNQj6Wkc+IozLGlACcsREM6xKvZckB2ZiSPlgRjSl8xBVmOWS1mNs46LiWUgUhlsRbzyHuBsYhLtwEMpLrA0DlF+IZE4RUIxgmoCgiDIwRL+SfHr44RMu/2tJO4ZMlKwwJwwm49oSjPRC+laJjpRVC1KgP4P5RySIydZwyQw8XeDPrZv5CuGuCEO6ZKBohweq2Cgh4nRXypcM+U9jNBrmd47OItd5ut2vPgQ4k289e860ox8yCmh+DwWd+bdWvUg5heMPaHeL4+9HotMUbfQpZthS52yDkLXGEwffBHRq2MXTDFQYU8nMAEM6k4WriwVo9mDikuvvJxVY05Yo6mND4+aZaEEeDWJGsFac5UoFGxMGlw7e5asESURwS/ga+FCGVwMqYOfGOa5hUcgCEmzGMKVmDJprcy74KQyd2TxxqME4XsW9hcDKQWkSbSMbVAS4gSgd8MX38VmB/eh6GwiCKAKg45ZnsketWkVcOi09G4bOAP/wsVmMzZnLwf6LPlvEZVPl8OLfUytkYMRSz8utoKzS6TeQi7Kf3YAahkLRndtweNnmUgQGIUWUoosbYhWIXbO4av7SHMHjgqqr14R4G2oRvKy0xt7ZAKMUCsG0bhm3/CrICQl4/yICfuXNNX8VrTmbO3VaC34N755J5Vp9ZssJhaRvkDvoUtjWJ7zhyhFpjbOIj6Zc4KOp3pDYU0jh3zJmWdE9cgc6KnjS2cypWjtONJ8wD9mrE/dlxVqWQUEy8R3pcCLL5cj2hrPMrCClcR0CfeWbxcxbiCIAf2U/B3aChFTP7KJzbifUNHoEQgERyNw6lsnU9gZVkorq/hRA6sCtek40NkLK1yTZB0RAn5w3LNPbI64ncBUEA4K9aJuu+cy8pxLqx568mp7wUblhaHEzaYzGxPszEPV4JN4W9DsTGyrdMvOB8txHDY6B3CAW2RSdp8Rd7QAJPJvUybzNltSeucHti0O81XuFYuEd/YW8XcAPm8bjKRQTCk/YXaAe+XmMaT+AnzDT5WHThuNJ4j049FkAFQmH1X+bMvCZcDk7YD/60F478cJUQvnC4WH6XGVBHB5aqzsxq03gOmT52L8uvxXQ+TEDqGyfRUX8DIXAQGPTVLiNWgoFmlt1wc1x7ResRfA8nSGY9I6gIVct5wyzY+tCNlosbBJZalkYsFPrQVXkGR95Td3myCHmVYCBkxA9TjFcYxPQ32z2DwEr2xWoAzpxYdxdDwlJDjKwMqwDahn6IpguFcJHNSu+2cBXgI67U9uE+1jO5UYpWDNzdXLmYhhAtaI7guLC2LrZ3jNZC6B+Un8KXWUjvvDSmHeEHJdlktL+EEw130TfEA09SbBaX+CYOxEMrYvfBSaMFsrqR+u/FBzuNK0OXklsmGHztWYSstvwTDSRjghJ3TWxBOJpnuzOHkGaLrMO7hDDeXX88xMYQm8cAG5dHP3bu0Dx8o6CPWitERxKlR2xbJUKoZ3dD0Tmft4ar/vAJx3qRkgsuD+hQ3jkQLW+mNr5A+2MOIYtBGEZfgGWSTFsAcflE3l9340yJTRp2KUIPsvcnnkWIy8g94drhypoDnQuIGjCFgXFjc0mQlCJMo4ty7mNppxIU/yzNcTQh6yqyhdj872g3zF6WQQZj/2hy4MfcBs7pzpFflQjTj93otFycT9F4prDtbu+v5NniFA4blTbO4ZHZ7u2s/mNf/fu0KQEfOKIsToODXnU/BvMixPE7Qv3srS7WRe7ZVFgx1mA60XVso1G8EIeY4nwZuRB4Yzz6WmFCI3L7Wkauqdd0maLvNI6+4zUs1SZneA1V27wF29PBinE/DZsBAocHX+Vka9wZkviHn+icxgnHqfZHUHSUJDolTiI4GPpRjc0bu5AgTO7ONW14wYOWIMskYnhS+P5MqvZVQsQ7dbFrNM5J0s6b/0hVsYnJz3QO27IygQUsjJbQKqmUiN45obWhDvCd3oODL1yH/u7QiSw13ZnJr9J2RKm4BsNQ3exzWQOjzKy75FTigW5NL0IIMhxYsj96KbAo7WXjfKWl8Ln/O3MIqFzLEvFJfRCi8zfjtQtFSMO/gjDedMcbHIyDXjxwQPCixb0bIhb0n0EIBHYMHyAujfTooelXd2kg+U+ujUEhzINKRGFKv4wPr0MIByMqsHu0wmYknPsxKZUdGXQ3AzU1HxgIl7X6nRevQhinUDjjZfiowQ9uDI/zw24XRvvNDeQeuI2YC+6kcVjdP7VK47Mfkn7IE8da7Obm/aKObh7d+fzzOlpubooFAjmIc46mWui54+fMj5HnUBDPs+jTi7YI+5uCvrl66EGCT6LefP9rsfD97c0T+iBCUjJ5K8BByTUaMtsV+2lrXAPo1YFGhJ7Cbk9FtBzPd6UisCwrYAFTspAYgBJpRrnGPfMX+/nDRSgq8edWvfyJRkk0V67qJSHfT1os57gZ4So6IlOUOyRHlW/rrb9Zfkfh/Hgcm8NEhSk2CLcSerAaWKUKqxXb9ejDeAYgxbgi9XQYbTVE5WiadfOXo+vnfD4/xo7tXIkSAZ9ixpKHm7RtCIO72ofddyde8Xeaqs0YmsMS8TLbeLmvCW9h9bEqUoxBBCb1fERAefUSGpWLMXE9aE76mDJgORgvzOEkrkp/qb3chwVynX4J32h8nXjwfGROBZmLifwb6RhNCy6AdCZ02q/BC7aOTP0FdJxaUHv47C4Qxgav+cFSMkAHYM7vphVKSFOedq0IsteQhq1v4S8SVEaBP00qepCf3+Z+IPdECG0fZiBB/T5pGiFLM5FRnyBe3Gey1q8Scf4Mr9HoBRSFRkZbegYgzKHzMn743yeOcGM1XVX8XyZYAiKV3v8vUemsxvkz/j+Jb8Rlf4RZi1AfppDyyS6m8WzraYB37aGy722pke6J/Prl8xMeCHqvoUfhTBVVz516IywM3NOMveM0tmuPPwRpjvumAqLmbrkBOn32Ylb2+HrebPzN5ltEwnRqm/81D3tsfrkza8r2R0g/FxDGEgSBxSWQc6dsCUB2uCGOGojy7KczM3DPE9E8eNG/PivtDb0QwgoZb0jiWRdS5LLd1ddkw81nWaFWUcnUbrn0cPPpZ8w+l5imLLIZSyUM74lVusMImUmiCcierGnztggpXEUIMooJdHayapkbDCPfsYgWFxeJ98IYUu7Z3rz0gvHqznUOEp9+GBBHRrdf20ncYwyVgldo6PBwIponW+U3tUrKoxUOLh4dQBwz3CshQtkqK/7TC2GIrtqs+TXCqK42NcE8fYPDPsgYiAz4hFmtfCgCICNRZuuFkHcYHavFZ3uc+BQS+Ciyts2Ls2ZgiUDaFtOAl50L9nfwjMJ7gVqcrMYKsjPle61vNVl+TG4OLhC1o1yKCokqq9tctBH/r8mY7MRhw/VkB/zJPS08ORf3oFpIR9OJzNSiuqCvLVldFEOgaD/J+0BkRTPznI/GATrDFgivEHtq5B1kFK96KY7dDNDUMPy4+JhO5FLb75fVNesXBY2LXAsePOgXvImmJsNYQsaaYQ9zswX/gyRzLZjVwIGLRY9s9+qkGZuy1EM/NOJbxmWjqLS4+DcmGOP+KG/PCQalNRHfDeWBo+AfLX5B++j4u8qLHss42049gSfhUjbVth94pEEEx5sOZQZQKrJ9zB8+BUtUx5gAyEJVLiRcJ22WGRzBeulibnU4f5Ly1yOhi0IbFT9EhB0lym+1aqYObXwEdBGkmTMKFDnZlHClhSlcJSsdYJGFrrgRaR9r4rKSObmPg/hItnhjTRlBypJdE6uKKpYQl1Wd9N7H/UPJ724R/nkOoeE3IKwlighLljKNMzs+fLrtjvDJOfxThPzzHlb9WoSTfw2hDe9taupTgf6X5hBfvqewx8drqfrUEwgbWDMiLFcEL20RVnCasjns411rmsMGhOJcL6XmOaSVCKtWqe4xtqrv0QNNK7MyHkTOzXqyF5WrNHKaJAaO8NLpPJSGHlyb70bXapnGaZMWRsg0ZUBayzRlAfgo0zwyuqGidHzNJwbDPfITPKb3rVSxgYbu62K1VMgC9aYaKuTSkvtMVXKpyZQ24nyOjJK0kuIyVX0G6oSOfLuci0Dgd1fcma4tzL+1uAoxfLDLUbjrLzsPA2wGJZuzvgmRRqGwGFFhH00KGQXLCdOYPhidhKevSWgDxQPU0FHJY+E9N2yGTKsrQrHeWf7OObaX3GNugEghTiUovqlZXHzCCKG6CtBSW5YTRaTkKYl+MlXF+qrv0WMPIQ0VJgbMV7UKRELN5kmElxqmTyaPw8sc8I5p4zLdT+QgKCq1xkbFfOMP3eIfd0QYd0bbxkHKsXFsDC/RaxWkFV9TO9lpcSjvOoxrtq1U1WHA8I3kYnMIa4iOAUYlCeBNS+m8SoXRSFaVg+gvVhri7cZ2IXIUMr7KznYsJe5HyYggJ5LWKkW9sJdaTkjjXzkdZC2+wlB8ttc+lER+IIVsL4J1jS8WGKFJ+5SoC8x/sdiJ3TyPhM380MrmLYEhxePNKx/i8DRDzMRDHq/6w5dM6Rj1FRuQwpzfYaIIG3h7J+JIXMFM/R78BHDcth42OFiCjNsEssQEpDyD+VDu8k7tOB8MdsS95QKiLLKJX4iSXIovtpb4pG0xbztG4rw58WualmIP21W2TXpvHn4mri9BjNyOAuCQ3h8FgnDs9nIpnOrhNjZW2hefOJbFAgghJ4sDje8QWv4BGcDDlsBW9WhmxWk9ohnRLPQ/8vJLN65/xRZu6WRgefvgq18oVNDPL3BfQvPWhPihLZ6YqredfV8LkEScWR10CxrCzMFxjSGm4+i88P3NYnk1Exs9ZwIW3jF/6COOSmSRgJFYIjGOo/MXlg9TH/CVS8/kXOVJmft85kgoKrfN63Kx8f3FeWDa8ZiaRAnI9jN7RXPQJQXMcIHLP35Bj6jDtuP7jKJOF3IoWWRkFO2eeKJsCWapMzLrKC0vfkCmAbhLUrYhjZNoPptQPykulqY0hCcCsswu9XHL5G0otKhQXCvLH5ty7lCDPjreMX+eA6FX1SKzuZQyrEcaINsimPcj/4DpOZju93pPg/JYw9wSQ3TIdqsti3aRJd/qA995qyGwRpbcv48/pHHOGvJ1bGiQH42YaiDbDk2mx0GBuEr/wNYOBNupfzdEKbkk7XcNQJybKeYN+pCS7YBILyTud4PVnmM8E3E6Zj8e4s3LAb2PW1nr+E2E0kerZMxZgtxPjAmOVwsRRTDIM5zxgCVe1fVQSmFXVQCFILUS07L8BjN5OLvkIKqaQ8HCzZnWWv64E7wiC7WvBhVVitsQ6UWTVSpRxvW0batwDRwijT+evRkW53IXK6B6DuMh1jEXTgfvPZXE63HaBVsgmXzKteX9WIJ3s1ht3ekQi+BgJttktlBjCts3b/Apt9pfxYeTVmFyt+RSY5FHN55DnbSWyyUxD6h/pC6qhZp7B0xjBZiMmYRtG5RE+mPP7hBeR8Fwdn+Jzkgr9c9WFqYYYZDmXUcHevtrVPDcjuCrNFq3CCPS9X5UJkuyUZIxuYlw2mNIvtU+AXlCK9YyFgqnjY+hsp0fdpdoMN2DqLSdrTx8vammakiWypi3us24DHb+mQ6i6+4AluOYN8ASOCflz7z8+rbiErFqJbH5/C+W30L5PS9/2R02zIvvjg0h783nHIp/n0TzNw8zemLbWD7A5rebr/PPaRRdw8NAzd3Mb0B4QfWNqykO1IfXHSGtbp6YwlAOhh5PHMyWymafyFwHGibhIc4kU17JV4BJauEqJfQbyoP85eMsfFqYmDQtDpctmZKWx5qwQryKicUdEBuYHLZYpyAh7x9eH4B1xqlzBaXt5Z5jZGODOFsoLScjki8O2Ybz5S14FyW8YCNfPh6QXAWPjYOMN2sMw6BxUhWWRMnFl3C91Wp1u82A1uv1bH2b3W4rsXK1SarYctFm4utw/qbl+TxAtlgPi99m61lCWF7h5SepYotXg06Q2UxRnXzzXtz8GigtLpp3Ms2rXpPpiIo0qhPlOzzMObnucTw2zeFQ1/FV2AnBL7quD01zPD66Ljw63w1kBzKTWiCJR7tMeSjOy9uZ8vZD+UP47cArGDT4u69v3o6bh/LHuPwuuhFP1mrfEoGLVIejsOVrdx5KR2J9PmSia0n2HpNoaouel152cWaseilsHqeW6BGqTtHZIouXwEkdJWERpb4Fc9AsNhp2bh1fitaQPxEPa0wK262FWKdAQzh4E7p3UBj1YBbwdeCdR0gwSfCRND0noohr5N3K6uEvnNsyG3YsHFeQhAOGUmd0iYaACBsanz4RzS+JjObtImNLKH4hZti7eanNHI4evXItCW1/MIda3zT3TyOkbRAOeiMUMr4nIgZ7QYxXae+ca23mkErfTyDEXFRPIRw/jZA1vLMHkjU7T9z7pxuike0T+Rk9R3vm+uCJkIYsSmA0GTxzQdEeDAYt75qUtj4cjPrmlEOKoopXCmXayPzTl3peWE4O0Ze2nvgwezdC07yCvQoXwsF7NN5C1nhyBP/L9L/d+ze96U1vetOb3vSmN73pTW9605ve9KY3/U/TfwCEorlJ/OMc2gAAAABJRU5ErkJggg==;" vertex="1" parent="1">
          <mxGeometry x="697.5" y="345" width="57.5" height="57.5" as="geometry" />
        </mxCell>
        <mxCell id="yjZvJMgO0i2MyXW5NNSe-14" value="" style="shape=image;verticalLabelPosition=bottom;labelBackgroundColor=default;verticalAlign=top;aspect=fixed;imageAspect=0;image=data:image/png,iVBORw0KGgoAAAANSUhEUgAAAOEAAADhCAMAAAAJbSJIAAAAe1BMVEX///8AAABycnJkZGQZGRlJSUkXFxd5eXn7+/soKCiNjY3ExMTo6Oi3t7ezs7P09PRbW1s1NTXPz89paWm9vb3Z2dmmpqbv7+9WVlbW1tYhISHi4uIwMDCDg4N3d3ccHBwNDQ2WlpY+Pj6cnJyHh4enp6fLy8tMTExCQkJABwpRAAAJ9ElEQVR4nO2daYOqIBSGM1ts00rL1kmraeb//8KbsSrgljTA5fly50oabyAHDsvp9SwWi8VisVjqsA6X7nn72ASdPTHYzLZndxmuO3viW0QOJDm529nbj5tt3VOCHhl1kL/3OTg5TtNZ28IMZtNT/mGHTnPaEs9hCf248XNiP+Q8yZOQ46bwFD5rbNisvs7ChPscFRT2uDnLath37Uf4B9FDJOa7PitR7pyknsbtSPiEleS812MJMrO4hxM2h4/K2x/sL3Rw7z74a/mB/FdzBpl5ti1eHBUbQ6dffrPXL/4m0yh+vnwx+N/5MxIqSEFmkHX2IjfXaCTHknuPuY+O+hFqWdbgSio57/VYgMxQxvkpks64uKY+6I+FM6rhhN2IhcR812cDMjPNXZynNSRSAke3vAWdgstl5f85Yn6j4FEa+RndkA/cinZvB6437zjIwLu+MnNijHNM6iqvHxeQ+skke6DBukrJcHNCYUH5SMOOc9sOJfps2hFK7zyv7biB7PC6aWukYsskbVESb4gEG5pb53ltB5QxLklznHkhYV4msDcuSfsDgqTkpUGjx6LlR5aeOwKEr3bS3Zj6TYb8YgKcuYWIipDfaYGpw85z2pab6F17kfC0QN0J/5atWq8hNmyCtn0Gi4u2JmhQKRhEgkrqbDrPaWsErQnkF6TSPZtZaTWclxbwnwD7WIJ+MrSKd+rSHVziWMKMFKRO+al/AqymA34qLBLa6u9KC32gXCXFramgTEDqibT9wamskvqqtaQZ3yBTbN/0RVgsMViq/E4Z7JM69d08nyAYlBmMs0Ah3xhCUzFQxtwD0rLm9EugkNvPQ30BNYb3BDQU4tpE0K5cyGAvBkXO9TNBW8gdcP0paKjA8TwFwBv6S10CJvLAUQHLW9RB+kuQK5GtehHbrsC2h+12w0GFM5GY07Zgn8Sy0KB6E1YOFD0pfnSJHqKULUSgxsY57XPX0YQLXSXRa5u3F3vsbFWnz52DuGXORI2HBHLHFk5ISjE44/vdj+W5IUOcRWcMhucBmZPItyrYDTXagoT1mNysVm8mx9KhuLouNSVRNCNXkrRy3St9o7IlmHF2hPBrKQduP0AdfHHOaQ/9QvwxQe9dHeY/wryTXlss/MxQMKBSikg0ZUo6aUvBJ1ZqzMRU4kU7KtfJDXv3UQVEVdmNb/Ts2jJSYta+HoF/fzWPwzTzzmDTAAxD7r+P9GVjrndfua52E5DnG3TLkTO4egZcI5BxyPpze/i3GjPYXRFcSGMDm5mL1rWSBRnANa6xmjSb9dmhQoR/8GYU9Qa9fagw99W3KI+Xo2Dll8Vk3XjklpvUwtXJeATN9WWwCxZUxfttJfDZsdGlsvJWwtajYhGcKmyqlQhR0sXGUDJ8r0SPnhz0R7nTJsC2SWEfFAUYAP80vAu4BtRYE1yBBxQ2Xd0LOgQrLVrTtxRKyVHXWIV8rEKVsAr5aKTwPWshJUtdY75COHb6njUBLjn6rX68ArQfPKmzdL2cWbUQIe9vsv0I4u16VejxGuLNEi1QYxNQDfaDVvoueozwXwR38bZQEaO7Nq62F8EmguuedtECEYH5mQt1Bfr4o6jD8wo+B8g8vbQCrP+i16zBVTSfzlpHWIUZVqHagMx/UVfMVEhvJDFNIbAE9MJZ0xTOR4VKapzCnrfY5neBGqeQwSrUH6tQf6xC/bEK9WM9yy9MN01hkHm/czuYTFMInN/0cjXTFJo/egKZ/x/G+GQRKVJIrnwZoLAWf53VlliFVqH6WIWmKFyNy1gZoLB8W68JFt8qtApVxirMsArV5n9TuOiHKXsssDkKvdd0acIcuWqOQrgHnzlz1RiF+KiP4kF6xihE+5xznrcMYxTiBZnFEzuNUeihVbXFTerGKERH6DM7KM1R2Ftnp7mwRwUapLDXC3hhAIxSSPBTPF1jpMLXdn101UiF6esy7L8ZqRBs24aNjpEKwX59uDvGSIWvg4LRFi4jFfbiu4vjypipkMYqVBurMMMqVBtG4WzKnGFmlsKtw8Y3MkEh2bycHc1THAKHBigkR/FkHsWir22otcJJIfdxeCm62uCvoOIp+nWANbAswl9crMl6AQNdlR1fDU8UVvQY/UqgG7js/C54woSuB2F68OBZcQQ8eFrrQYvzr3icqwoRtqR6nEPHA50vKHrN4IuqyVmCXNApn/wDPVAoWaVjIVSAJ2R4ryIOb6nNaRg8pkgFazJwFAWVAsi1AIfmcAsxLPExtXocKyQGB1R9DjKI1dtTIVd0CPdQyp5ocQb9rR/52z59uIuuxp6ClshigMBng3oS6jtp3YwSgr5AYF/HM2n4rHnFeFIlYnM35AKzZOy4wZy15nhzUVCZxL0Z8gIW8YL9I3rsA20HSxaLxWKxGMTmNl4OIT9n2ie/xddr8bPrn78rTnwMNt/n/u6n0XOX9BLH+Ixvdse3Ol67WSFCI7X2vN0BwZNxiUd4PKl+AAcSrSVI8ik/Vef0emzsRewoKh/KlnHlBzqaXatvFYAHzlMmqRhwOc+c8zAcPixqnZ/nQ1hvzLw42mgCHpjwHlLi+YkvnM/jKb81J7E+xUByJbFWa4ArPi+ozUE8n8f9VePy5Nrk492nbz2LhKXjxmwVRq0jkW6TwQhwCekin05GTRjkWwF6/veeS8FfV48J7UOehxf260SRB1H6uLOZEm/jUwVPJmhS6vf2N50NFzfYDctPR0XYcejFI/FDoZacnNre73isj95u/rwz9BZ1P5n3wNUHlJbHSO4O2PKceGnIGEjw8AUo1BxYkYB6Dr8SvBkoEi/PzwXnY6XMBHnIttOxZOVEyoNdAM68M5qulDNREsOKSsWSTcpWobQHdVrYbhRs82SFbkfvAIklK8tfCttTxiaiqiNtrmuJas+QlKYUUCEW53x2dFMgA7RqAdl6easTQm4hogl3idOVxViy0kCFSJva4/TgdM/vNvd75eN65Cz9fNs2cmkZhyn6Em9c/emWnKZrYl7pryENWrCfiucX32X8MkjeT/Un3+AQRmuAT1314bVZX0btIfxkEr+kfsVf8/Ve5Fcd2BRGauZxRyOKods1zV6wQ+ffD3sWpx7oMDaN/FqHza1uaKtVLT9nU2AnhhNmo0PixbIq9NNl50vqZqCtHFIVPonXPmYBoyEtyKW1nBFGxteHFOZgz6CViFUohY8qRO8haEtXn1l/9UmFAWjJExSsMLkMuub3m2kkBQrj79/Ov/0C/SbXXlrRmr/F6lZ16nw2dGofEbIGKXe6qUuG6XGOiKHCGF85pkPJ3z9/d46kEUnh3w/wmg+SNwD+e+BI+7t5wEk9GOH9nEF07ndOs/bj1H0GzpFsE7iZ8qaUeST3va4LMo9ptZdpMtV4Y1fG5lZ62rWUkaHFYrFYLJb/jn+N2IswVesgkgAAAABJRU5ErkJggg==;" vertex="1" parent="1">
          <mxGeometry x="648.13" y="351.88" width="43.75" height="43.75" as="geometry" />
        </mxCell>
        <mxCell id="yjZvJMgO0i2MyXW5NNSe-16" value="Personalised Advisor for farmers" style="ellipse;whiteSpace=wrap;html=1;fontStyle=1;fontSize=16;spacingTop=-31;" vertex="1" parent="1">
          <mxGeometry x="590" y="450" width="180" height="125" as="geometry" />
        </mxCell>
      </root>
    </mxGraphModel>
  </diagram>
</mxfile>
